<svg width="300" height="300" viewBox="0 0 300 300" fill="none" xmlns="http://www.w3.org/2000/svg">
<g clip-path="url(#clip0_25_175)">
<path d="M108.451 173.824L148.775 125.74L129.802 109.808L126.619 113.608C125.372 115.113 123.838 116.356 122.107 117.264C120.376 118.171 118.481 118.725 116.534 118.894C116.092 118.933 115.649 118.953 115.213 118.953C111.727 118.956 108.353 117.722 105.69 115.471C102.674 112.936 100.787 109.307 100.442 105.381C100.098 101.455 101.325 97.5525 103.855 94.531L107.038 90.7315L95.659 81.1766C91.9724 78.0757 89.6662 73.6379 89.2464 68.8374C88.8267 64.0368 90.3278 59.2657 93.4202 55.5715L135.871 4.95583C137.626 2.8493 139.84 1.17225 142.343 0.0528564C63.0617 4.01753 2.30484e-05 69.6196 2.30484e-05 149.944C-0.0513567 186.851 13.5423 222.472 38.1646 249.953L101.457 174.439C101.875 173.938 102.388 173.524 102.966 173.222C103.545 172.92 104.177 172.735 104.827 172.678C105.476 172.621 106.131 172.692 106.753 172.889C107.375 173.086 107.952 173.404 108.451 173.824Z" fill="url(#paint0_linear_25_175)"/>
<path d="M222.172 174.426L233.537 183.981C235.215 185.387 237.382 186.07 239.563 185.879C241.743 185.688 243.759 184.639 245.167 182.963L287.617 132.347C288.318 131.518 288.846 130.557 289.173 129.522C289.499 128.486 289.617 127.396 289.519 126.314C289.428 125.233 289.123 124.182 288.622 123.22C288.121 122.258 287.434 121.405 286.601 120.711L275.215 111.15L222.172 174.426Z" fill="#152350"/>
<path d="M172.84 12.2376L176.023 8.44475C178.008 6.07384 180.688 4.38844 183.684 3.62767C174.971 1.62864 166.098 0.414568 157.169 0C158.714 0.691914 160.157 1.59475 161.455 2.68276L172.84 12.2376Z" fill="#D90E0E"/>
<path d="M198.787 27.5545L195.604 31.3539L258.837 84.4475L262.02 80.648C264.366 77.8598 267.652 76.0297 271.257 75.5048C274.861 74.9798 278.532 75.7965 281.575 77.8C263.488 44.8271 233.717 19.8252 198.127 7.7179C200.477 10.1567 201.917 13.3294 202.208 16.7045C202.382 18.6494 202.17 20.6097 201.583 22.472C200.995 24.3343 200.045 26.0617 198.787 27.5545Z" fill="#D90E0E"/>
<path d="M198.054 180.056C199.061 180.899 200.36 181.308 201.668 181.192C202.976 181.077 204.184 180.447 205.028 179.441L277.203 93.4142C277.622 92.9171 277.939 92.3415 278.134 91.7211C278.329 91.1006 278.398 90.4475 278.339 89.7998C278.284 89.1511 278.101 88.5198 277.801 87.9425C277.5 87.3651 277.089 86.8532 276.589 86.4364C275.7 85.6867 274.575 85.2769 273.412 85.28C272.688 85.2788 271.972 85.4361 271.315 85.7408C270.658 86.0456 270.076 86.4905 269.608 87.0443L197.446 173.071C196.604 174.079 196.196 175.38 196.309 176.689C196.423 177.998 197.051 179.208 198.054 180.056Z" fill="#152350"/>
<path d="M281.601 103.557L292.973 113.112C294.253 114.189 295.38 115.436 296.322 116.819C294.381 108.13 291.662 99.6333 288.199 91.4319C287.951 94.4871 286.76 97.3897 284.791 99.7379L281.601 103.557Z" fill="#2E458F"/>
<path d="M298.917 131.634C298.236 134.238 296.984 136.658 295.252 138.717L252.801 189.333C249.702 193.02 245.268 195.326 240.472 195.746C235.676 196.166 230.909 194.665 227.217 191.573L215.832 182.018L212.649 185.811C210.113 188.828 206.486 190.715 202.561 191.06C198.637 191.404 194.736 190.177 191.714 187.648C188.702 185.109 186.817 181.479 186.474 177.553C186.132 173.626 187.358 169.724 189.885 166.701L193.068 162.902L174.101 146.977L133.777 195.062C134.276 195.48 134.687 195.993 134.987 196.571C135.287 197.148 135.471 197.779 135.527 198.428C135.584 199.077 135.512 199.73 135.316 200.351C135.12 200.972 134.803 201.548 134.385 202.046L71.0789 277.534C94.7834 292.256 122.136 300.039 150.036 300C232.877 300 300.033 232.799 300.033 149.911C300.029 143.801 299.656 137.698 298.917 131.634Z" fill="url(#paint1_linear_25_175)"/>
<path d="M105.861 184.59L48.5541 252.925L66.2604 267.791L123.568 199.456L105.861 184.59Z" fill="#152350"/>
<path d="M156.368 132.112L116.04 180.2L126.158 188.695L166.485 140.607L156.368 132.112Z" fill="#152350"/>
<path d="M189.233 38.9479L136.171 102.221L199.408 155.314L252.47 92.0404L189.233 38.9479Z" fill="#152350"/>
<path d="M166.467 19.8299L155.088 10.2751C154.258 9.57641 153.298 9.04865 152.263 8.72208C151.229 8.39551 150.14 8.27657 149.059 8.37205C147.979 8.46338 146.927 8.76861 145.966 9.27C145.005 9.77138 144.152 10.4589 143.459 11.2927L101.008 61.9149C99.6026 63.5937 98.9203 65.7619 99.111 67.9436C99.3017 70.1253 100.35 72.1421 102.025 73.5512L113.404 83.1061L166.467 19.8299Z" fill="#152350"/>
<path d="M192.335 17.5701C192.282 16.9202 192.099 16.2875 191.799 15.7089C191.498 15.1303 191.086 14.6174 190.585 14.2001C189.695 13.4534 188.57 13.044 187.408 13.0437C186.684 13.042 185.969 13.1997 185.313 13.5058C184.656 13.8118 184.075 14.2587 183.611 14.8146L111.443 100.868C110.6 101.875 110.191 103.175 110.306 104.484C110.422 105.792 111.051 107.001 112.057 107.846C112.553 108.267 113.127 108.585 113.748 108.782C114.368 108.978 115.021 109.048 115.669 108.989C116.317 108.933 116.948 108.75 117.525 108.45C118.102 108.149 118.614 107.737 119.031 107.238L191.199 21.1845C191.619 20.6879 191.936 20.1125 192.131 19.4918C192.326 18.8712 192.396 18.2178 192.335 17.5701Z" fill="#152350"/>
</g>
<defs>
<linearGradient id="paint0_linear_25_175" x1="169.5" y1="87.0001" x2="63.0001" y2="210" gradientUnits="userSpaceOnUse">
<stop stop-color="#D90E0E"/>
<stop offset="1" stop-color="#8F2D2D"/>
</linearGradient>
<linearGradient id="paint1_linear_25_175" x1="185.556" y1="131.634" x2="185.556" y2="300" gradientUnits="userSpaceOnUse">
<stop stop-color="#2E458F"/>
<stop offset="1" stop-color="#0D1429"/>
</linearGradient>
<clipPath id="clip0_25_175">
<rect width="300" height="300" fill="white"/>
</clipPath>
</defs>
</svg>
