<svg width="539" height="262" viewBox="0 0 539 262" fill="none" xmlns="http://www.w3.org/2000/svg">
<path d="M330.78 37.496C329.284 34.7307 327.403 32.7587 325.136 31.58C322.869 30.356 320.421 29.744 317.792 29.744C314.936 29.744 312.375 30.4467 310.108 31.852C307.841 33.2573 306.028 35.2067 304.668 37.7C303.353 40.148 302.696 42.9813 302.696 46.2C302.696 49.464 303.331 52.3427 304.6 54.836C305.915 57.284 307.705 59.2107 309.972 60.616C312.284 61.976 314.913 62.656 317.86 62.656C319.809 62.656 321.623 62.316 323.3 61.636C325.023 60.956 326.519 60.0267 327.788 58.848C329.103 57.6693 330.168 56.2867 330.984 54.7V50.756H317.996V43.412H339.96V55.856C338.872 58.4853 337.263 60.9333 335.132 63.2C333.001 65.4213 330.44 67.1893 327.448 68.504C324.501 69.8187 321.215 70.476 317.588 70.476C314.097 70.476 310.879 69.8867 307.932 68.708C305.031 67.5293 302.469 65.8747 300.248 63.744C298.072 61.568 296.372 59.0067 295.148 56.06C293.924 53.068 293.312 49.7813 293.312 46.2C293.312 42.664 293.924 39.4227 295.148 36.476C296.372 33.484 298.072 30.9 300.248 28.724C302.424 26.548 304.985 24.8707 307.932 23.692C310.879 22.5133 314.075 21.924 317.52 21.924C320.693 21.924 323.708 22.4453 326.564 23.488C329.42 24.4853 331.936 25.9587 334.112 27.908C336.288 29.812 337.965 32.1467 339.144 34.912L330.78 37.496ZM383.464 30.084H359.188V42.188H377.344V49.6H359.188V62.316H383.464V70H350.008V22.4H383.464V30.084ZM391.787 22.4H430.411V30.084H415.723V70H406.543V30.084H391.787V22.4ZM296.78 104.4H302.22V152H296.78V104.4ZM352.88 104.4V152H347.372L321.94 113.104V152H316.5V104.4H322.008L347.44 143.228V104.4H352.88ZM384.981 104.4H390.421V139.556C390.421 142.049 389.877 144.271 388.789 146.22C387.701 148.169 386.183 149.711 384.233 150.844C382.329 151.932 380.085 152.476 377.501 152.476C374.237 152.476 371.563 151.66 369.477 150.028C367.392 148.351 365.964 146.061 365.193 143.16L369.885 141.46C370.203 142.639 370.656 143.704 371.245 144.656C371.88 145.608 372.696 146.356 373.693 146.9C374.736 147.444 376.005 147.716 377.501 147.716C379.269 147.716 380.697 147.308 381.785 146.492C382.873 145.676 383.667 144.656 384.165 143.432C384.709 142.163 384.981 140.871 384.981 139.556V104.4ZM404.145 104.4H409.585V134.456C409.585 137.584 410.151 140.123 411.285 142.072C412.418 144.021 413.937 145.449 415.841 146.356C417.79 147.263 419.989 147.716 422.437 147.716C424.839 147.716 426.993 147.263 428.897 146.356C430.801 145.449 432.319 144.021 433.453 142.072C434.586 140.123 435.153 137.584 435.153 134.456V104.4H440.593V134.388C440.593 137.516 440.094 140.213 439.097 142.48C438.145 144.747 436.807 146.628 435.085 148.124C433.362 149.575 431.413 150.663 429.237 151.388C427.061 152.113 424.771 152.476 422.369 152.476C419.105 152.476 416.09 151.841 413.325 150.572C410.559 149.257 408.338 147.263 406.661 144.588C404.983 141.913 404.145 138.513 404.145 134.388V104.4ZM482.023 118.476C482.023 115.62 481.184 113.353 479.507 111.676C477.829 109.999 475.087 109.16 471.279 109.16H459.991V127.792H471.347C473.84 127.792 475.857 127.407 477.399 126.636C478.985 125.865 480.141 124.777 480.867 123.372C481.637 121.967 482.023 120.335 482.023 118.476ZM471.279 104.4C474.996 104.4 478.033 105.035 480.391 106.304C482.793 107.573 484.584 109.273 485.763 111.404C486.941 113.489 487.531 115.847 487.531 118.476C487.531 120.335 487.213 122.103 486.579 123.78C485.989 125.457 485.037 126.953 483.723 128.268C482.408 129.583 480.731 130.625 478.691 131.396C476.651 132.167 474.203 132.552 471.347 132.552H459.991V152H454.551V104.4H471.279ZM475.223 130.512L488.415 152H482.227L469.375 130.512H475.223ZM530.099 104.4H536.151L518.743 133.708V152H513.303V133.776L495.895 104.4H501.947L516.023 128.54L530.099 104.4Z" fill="white"/>
<path d="M315.684 209.044C317.905 209.044 319.787 208.704 321.328 208.024C322.915 207.299 324.161 206.301 325.068 205.032C326.02 203.763 326.677 202.289 327.04 200.612C327.403 198.799 327.357 197.28 326.904 196.056C326.451 194.787 325.589 193.812 324.32 193.132C323.051 192.452 321.305 192.112 319.084 192.112H308.136L304.736 209.044H315.684ZM333.84 200.612C333.387 202.924 332.389 205.168 330.848 207.344C329.352 209.52 327.244 211.311 324.524 212.716C321.804 214.076 318.472 214.756 314.528 214.756H303.58L299.772 234H292.972L302.492 186.4H320.24C323.912 186.4 326.836 187.057 329.012 188.372C331.188 189.641 332.661 191.364 333.432 193.54C334.248 195.671 334.384 198.028 333.84 200.612ZM362.682 192.112H360.302L337.046 234H330.11L356.698 186.4H368.462L376.146 234H369.21L362.682 192.112ZM342.486 216.184H370.162L369.074 221.896H341.33L342.486 216.184ZM419.685 186.4H427.233L403.637 216.32L400.169 234H393.369L396.905 216.388L385.277 186.4H392.825L401.529 210.132L419.685 186.4Z" fill="#C4AE85"/>
<g clip-path="url(#clip0_30_43)">
<path d="M205.091 117.583C206.69 114.472 207.486 111.017 207.409 107.526C207.409 101.465 205.651 96.7624 202.134 93.4186C198.617 90.0748 192.91 88.3817 185.014 88.3394H169.315V126.662H185.078C189.471 126.824 193.845 126.013 197.882 124.287C200.951 122.881 203.479 120.529 205.091 117.583Z" stroke="url(#paint0_linear_30_43)" stroke-miterlimit="10"/>
<path d="M86.9945 106.739C87.2122 107.145 87.4427 107.526 87.6604 108.009L90.9127 106.739C90.695 106.345 90.4774 105.926 90.2469 105.545L86.9945 106.739Z" stroke="url(#paint1_linear_30_43)" stroke-miterlimit="10"/>
<path d="M55.7512 77.673C55.0854 77.673 54.4707 77.673 53.7281 77.673C52.9854 77.673 52.4476 77.673 51.8458 77.673L53.7537 77.7746C54.4708 77.7238 55.0726 77.6984 55.7512 77.673Z" stroke="url(#paint2_linear_30_43)" stroke-miterlimit="10"/>
<path d="M51.6666 177.314C52.3453 177.314 53.0239 177.314 53.7153 177.314C54.4068 177.314 54.9958 177.314 55.572 177.314L53.6641 177.213C52.9983 177.264 52.3325 177.289 51.6666 177.314Z" stroke="url(#paint3_linear_30_43)" stroke-miterlimit="10"/>
<path d="M99.7735 145.099C97.6584 151.246 94.3037 156.901 89.914 161.721C85.46 166.578 80.0411 170.469 73.9979 173.149C68.1934 175.727 61.93 177.134 55.572 177.289C56.2507 177.289 56.9294 177.289 57.6208 177.289C64.6073 177.359 71.5263 175.93 77.9033 173.099C83.9465 170.418 89.3654 166.527 93.8194 161.67C98.2138 156.854 101.569 151.198 103.679 145.049V124.122H99.7735V145.099Z" stroke="url(#paint4_linear_30_43)" stroke-miterlimit="10"/>
<path d="M34.4188 92.4407C28.684 95.6897 23.9955 100.484 20.8972 106.269C17.4657 112.817 15.7692 120.123 15.9673 127.5C15.782 134.831 17.4784 142.089 20.8972 148.591C24.0029 154.37 28.6896 159.163 34.4188 162.419C39.7593 165.439 45.7651 167.113 51.9099 167.296L53.8049 167.169C48.3551 166.741 43.0662 165.133 38.3114 162.458C32.5877 159.194 27.9027 154.403 24.7897 148.629C21.3779 142.112 19.6946 134.841 19.8984 127.5C19.7002 120.123 21.3966 112.817 24.8281 106.269C27.9338 100.49 32.6205 95.6969 38.3498 92.4407C43.0641 89.7784 48.3084 88.1705 53.7153 87.7298C53.0623 87.7298 52.4349 87.6282 51.7434 87.6028C45.6589 87.8016 39.7139 89.4617 34.4188 92.4407Z" stroke="url(#paint5_linear_30_43)" stroke-miterlimit="10"/>
<path d="M87.0969 89.8377C91.5631 93.8739 95.1155 98.8033 97.5198 104.301L90.9127 106.726C91.1303 107.132 91.3608 107.513 91.5657 107.996L101.425 104.364C99.0332 98.8415 95.4797 93.8889 91.0023 89.8377C86.5853 85.8845 81.4485 82.8031 75.8673 80.7586C70.0235 78.6381 63.8432 77.5757 57.6207 77.6222H55.7384C61.2751 77.7809 66.7495 78.8272 71.9491 80.7205C77.5387 82.7733 82.6805 85.868 87.0969 89.8377Z" stroke="url(#paint6_linear_30_43)" stroke-miterlimit="10"/>
<path d="M30.5006 92.4407C24.7714 95.6969 20.0846 100.49 16.9789 106.269C13.5474 112.817 11.851 120.123 12.0491 127.5C11.8637 134.831 13.5601 142.089 16.9789 148.591C20.0919 154.365 24.7769 159.156 30.5006 162.419C36.3842 165.71 43.0431 167.393 49.7971 167.296C50.5141 167.296 51.2184 167.296 51.9227 167.296C45.7768 167.127 39.7665 165.466 34.4188 162.458C28.6896 159.201 24.0029 154.408 20.8972 148.629C17.4783 142.127 15.782 134.869 15.9673 127.538C15.7692 120.161 17.4657 112.855 20.8972 106.307C23.9955 100.523 28.6839 95.7278 34.4188 92.4788C39.7177 89.4978 45.6673 87.8376 51.7562 87.6409C51.1032 87.6409 50.4757 87.6409 49.7971 87.6409C43.0494 87.5145 36.3894 89.1712 30.5006 92.4407Z" stroke="url(#paint7_linear_30_43)" stroke-miterlimit="10"/>
<path d="M89.9139 161.721C94.3036 156.901 97.6583 151.246 99.7734 145.099V124.122H95.8552V145.074C93.7453 151.223 90.3901 156.879 85.9957 161.696C81.5417 166.553 76.1228 170.444 70.0796 173.124C64.8955 175.433 59.3355 176.801 53.6641 177.162L55.5719 177.264C61.9299 177.109 68.1933 175.702 73.9978 173.124C80.0387 170.451 85.4574 166.569 89.9139 161.721Z" stroke="url(#paint8_linear_30_43)" stroke-miterlimit="10"/>
<path d="M68.0437 80.7713C73.6239 82.812 78.7607 85.8891 83.1788 89.8377C87.6488 93.8705 91.2018 98.8008 93.6017 104.301L90.2469 105.571C90.4774 105.951 90.6951 106.37 90.9127 106.764L97.5199 104.339C95.1203 98.8277 91.5676 93.8849 87.097 89.8377C82.6773 85.8816 77.5358 82.8 71.9492 80.7586C66.7529 78.871 61.283 77.829 55.7513 77.673C55.0855 77.673 54.4708 77.673 53.7538 77.7746C58.6376 78.0872 63.4504 79.0965 68.0437 80.7713Z" stroke="url(#paint9_linear_30_43)" stroke-miterlimit="10"/>
<path d="M134.09 78.6127H130.184V176.387H134.09V78.6127Z" stroke="url(#paint10_linear_30_43)" stroke-miterlimit="10"/>
<path d="M130.184 78.6127H126.279V176.387H130.184V78.6127Z" stroke="url(#paint11_linear_30_43)" stroke-miterlimit="10"/>
<path d="M169.303 136.439H165.397V176.387H169.303V136.439Z" stroke="url(#paint12_linear_30_43)" stroke-miterlimit="10"/>
<path d="M169.303 88.3901H165.397V126.662H169.303V88.3901Z" stroke="url(#paint13_linear_30_43)" stroke-miterlimit="10"/>
<path d="M222.774 92.9994C220.253 88.4954 216.425 84.8459 211.788 82.5236C206.854 79.9078 200.537 78.6041 192.837 78.6126H188.919C196.602 78.6126 202.915 79.9163 207.857 82.5236C212.494 84.8459 216.322 88.4954 218.843 92.9994C221.263 97.4618 222.501 102.46 222.442 107.526C222.453 111.261 221.807 114.969 220.534 118.484C219.252 121.986 217.2 125.161 214.528 127.779C211.561 130.623 208.004 132.789 204.105 134.128C199.218 135.77 194.078 136.552 188.919 136.439H192.824C197.992 136.555 203.141 135.773 208.036 134.128C211.935 132.789 215.492 130.623 218.459 127.779C221.13 125.162 223.178 121.987 224.452 118.484C225.721 114.969 226.363 111.26 226.347 107.526C226.415 102.462 225.185 97.4639 222.774 92.9994Z" stroke="url(#paint14_linear_30_43)" stroke-miterlimit="10"/>
<path d="M165.397 88.3901H161.492V126.662H165.397V88.3901Z" stroke="url(#paint15_linear_30_43)" stroke-miterlimit="10"/>
<path d="M214.528 127.779C217.191 125.158 219.234 121.984 220.508 118.484C221.782 114.969 222.427 111.261 222.416 107.526C222.475 102.46 221.237 97.4618 218.818 92.9994C216.296 88.4954 212.469 84.8459 207.832 82.5236C202.906 79.9078 196.602 78.6041 188.919 78.6126H185.078C192.761 78.6126 199.077 79.9163 204.029 82.5236C208.666 84.8459 212.493 88.4954 215.015 92.9994C217.43 97.4627 218.664 102.461 218.6 107.526C218.616 111.26 217.975 114.969 216.705 118.484C215.423 121.989 213.367 125.165 210.687 127.779C207.72 130.623 204.163 132.789 200.264 134.128C195.376 135.77 190.237 136.552 185.078 136.439H188.919C194.087 136.555 199.235 135.773 204.131 134.128C208.021 132.786 211.569 130.619 214.528 127.779Z" stroke="url(#paint16_linear_30_43)" stroke-miterlimit="10"/>
<path d="M165.397 136.439H161.492V176.387H165.397V136.439Z" stroke="url(#paint17_linear_30_43)" stroke-miterlimit="10"/>
<path d="M18.7075 163.486C14.1927 158.978 10.6469 153.608 8.28451 147.702C5.72557 141.273 4.45136 134.412 4.53277 127.5C4.44682 120.594 5.7122 113.738 8.25888 107.31C10.6213 101.404 14.1671 96.0347 18.6818 91.5265C23.1446 87.0987 28.4622 83.6092 34.3163 81.2665C39.8815 79.0359 45.8066 77.8186 51.8073 77.6729C51.1287 77.6729 50.4629 77.6729 49.7715 77.6729C43.14 77.6101 36.5611 78.8442 30.4109 81.3046C24.56 83.636 19.2427 87.1124 14.7765 91.5265C10.2564 96.0304 6.70982 101.401 4.35349 107.31C1.8227 113.74 0.578867 120.598 0.691394 127.5C0.604333 134.403 1.87429 141.256 4.43032 147.677C6.76083 153.589 10.2811 158.968 14.7765 163.486C19.2387 167.918 24.5562 171.411 30.4109 173.759C36.5628 176.213 43.1405 177.447 49.7715 177.39C50.3989 177.39 51.0519 177.39 51.6409 177.39C45.6971 177.229 39.8301 176.017 34.3163 173.81C28.4663 171.444 23.1576 167.933 18.7075 163.486Z" stroke="url(#paint18_linear_30_43)" stroke-miterlimit="10"/>
<path d="M73.4345 92.5042C67.9872 89.4928 61.8946 87.8126 55.6617 87.6028C55.0086 87.6028 54.3812 87.679 53.7281 87.7298C59.2746 88.1834 64.6584 89.8115 69.5162 92.5042C75.7121 96.1203 80.6685 101.5 83.7421 107.945L86.9945 106.675C83.9249 100.769 79.2211 95.8534 73.4345 92.5042Z" stroke="url(#paint19_linear_30_43)" stroke-miterlimit="10"/>
<path d="M54.5476 124.148H50.6422V133.227H54.5476V124.148Z" stroke="url(#paint20_linear_30_43)" stroke-miterlimit="10"/>
<path d="M68.6455 164.578C73.1436 162.829 77.222 160.165 80.6178 156.756C84.0484 153.278 86.6897 149.114 88.3646 144.541V133.227H84.4464V144.541C82.7762 149.116 80.1343 153.282 76.6996 156.756C73.3001 160.166 69.2171 162.831 64.7145 164.578C61.221 165.944 57.5462 166.799 53.8049 167.118L55.8281 167.245C60.2204 167.069 64.5523 166.168 68.6455 164.578Z" stroke="url(#paint21_linear_30_43)" stroke-miterlimit="10"/>
<path d="M77.3398 92.5042C71.3156 89.1742 64.5171 87.4668 57.6208 87.552C56.9677 87.552 56.3403 87.552 55.6616 87.552C61.8945 87.7618 67.9872 89.442 73.4344 92.4534C79.2373 95.8334 83.9427 100.791 86.9945 106.739L90.2469 105.545C87.2134 100.12 82.7526 95.6132 77.3398 92.5042Z" stroke="url(#paint22_linear_30_43)" stroke-miterlimit="10"/>
<path d="M58.453 124.148H54.5476V133.227H58.453V124.148Z" stroke="url(#paint23_linear_30_43)" stroke-miterlimit="10"/>
<path d="M38.2602 173.733C32.4076 171.394 27.0903 167.909 22.6257 163.486C18.1074 158.974 14.565 153.594 12.2156 147.677C9.65955 141.256 8.38959 134.403 8.47666 127.5C8.38858 120.593 9.65854 113.735 12.2156 107.31C14.5719 101.401 18.1185 96.0304 22.6385 91.5265C27.1013 87.0988 32.4188 83.6092 38.2729 81.2665C43.2046 79.2808 48.4284 78.1015 53.7409 77.7746L51.833 77.673C45.8323 77.8186 39.9072 79.0359 34.342 81.2665C28.4878 83.6092 23.1703 87.0988 18.7075 91.5265C14.1927 96.0347 10.6469 101.404 8.28455 107.31C5.72912 113.736 4.45502 120.593 4.53282 127.5C4.44658 134.401 5.71199 141.254 8.25892 147.677C10.6258 153.594 14.1806 158.973 18.7075 163.486C23.1698 167.918 28.4872 171.411 34.342 173.759C39.8558 175.966 45.7228 177.178 51.6666 177.34C52.3324 177.34 52.947 177.34 53.6641 177.238C48.3732 176.896 43.1722 175.713 38.2602 173.733Z" stroke="url(#paint24_linear_30_43)" stroke-miterlimit="10"/>
<path d="M72.5509 164.578C77.049 162.829 81.1275 160.165 84.5232 156.756C87.9349 153.276 90.5546 149.11 92.206 144.541V133.227H88.3646V144.541C86.6898 149.114 84.0485 153.278 80.6178 156.756C77.222 160.165 73.1436 162.829 68.6455 164.578C64.5572 166.171 60.2296 167.076 55.8409 167.257C56.43 167.257 57.019 167.257 57.6208 167.257C62.7243 167.317 67.7921 166.408 72.5509 164.578Z" stroke="url(#paint25_linear_30_43)" stroke-miterlimit="10"/>
<path d="M53.7153 167.296C54.4324 167.296 55.1367 167.296 55.8409 167.296L53.8178 167.169L51.9099 167.296C52.5245 167.296 53.1135 167.296 53.7153 167.296Z" stroke="url(#paint26_linear_30_43)" stroke-miterlimit="10"/>
<path d="M53.7153 87.552C53.0494 87.552 52.4349 87.552 51.7562 87.552C52.4221 87.552 53.0367 87.6282 53.7281 87.679C54.4196 87.7298 55.0086 87.5774 55.6616 87.552C55.0214 87.5774 54.3683 87.552 53.7153 87.552Z" stroke="url(#paint27_linear_30_43)" stroke-miterlimit="10"/>
<path d="M92.2699 133.227V144.541C90.6186 149.11 87.9988 153.275 84.5872 156.756C81.1914 160.164 77.1129 162.829 72.6149 164.578C67.8386 166.429 62.7482 167.351 57.6207 167.296C57.0189 167.296 56.4299 167.296 55.8409 167.296C55.2518 167.296 54.4323 167.296 53.7152 167.296C52.9982 167.296 52.5245 167.296 51.9226 167.296C51.3208 167.296 50.5141 167.296 49.797 167.296C43.0419 167.389 36.3829 165.702 30.5006 162.407C24.7769 159.144 20.0919 154.352 16.9788 148.579C13.56 142.076 11.8637 134.818 12.0491 127.487C11.851 120.11 13.5473 112.804 16.9788 106.256C20.0845 100.477 24.7713 95.6842 30.5006 92.428C36.3806 89.1275 43.0411 87.44 49.797 87.5393C50.4629 87.5393 51.0775 87.5393 51.7562 87.5393C52.4348 87.5393 53.0366 87.5393 53.7152 87.5393C54.3939 87.5393 54.9957 87.5393 55.6616 87.5393C56.3274 87.5393 56.9421 87.5393 57.6207 87.5393C64.517 87.4541 71.3156 89.1615 77.3398 92.4915C82.7525 95.6005 87.2133 100.108 90.2468 105.532L93.6016 104.263C91.197 98.7763 87.6443 93.8594 83.1787 89.8376C78.7606 85.889 73.6238 82.812 68.0436 80.7713C63.4462 79.0952 58.629 78.0859 53.7409 77.7745C48.4241 78.1001 43.1959 79.2794 38.2602 81.2665C32.406 83.6092 27.0885 87.0988 22.6257 91.5265C18.1102 96.0316 14.5681 101.402 12.2156 107.31C9.65853 113.735 8.38857 120.593 8.47664 127.5C8.38958 134.403 9.65953 141.256 12.2156 147.677C14.565 153.594 18.1073 158.974 22.6257 163.486C27.088 167.918 32.4054 171.411 38.2602 173.759C43.1615 175.726 48.3492 176.9 53.6257 177.238C59.2971 176.877 64.8571 175.51 70.0411 173.2C76.0844 170.52 81.5033 166.629 85.9573 161.772C90.3517 156.956 93.7069 151.299 95.8168 145.15V124.122H58.4274V133.201H92.2315L92.2699 133.227Z" stroke="url(#paint28_linear_30_43)" stroke-miterlimit="10"/>
<path d="M118.916 78.6127H115.011V176.387H118.916V78.6127Z" stroke="url(#paint29_linear_30_43)" stroke-miterlimit="10"/>
<path d="M122.822 78.6127H118.916V176.387H122.822V78.6127Z" stroke="url(#paint30_linear_30_43)" stroke-miterlimit="10"/>
<path d="M126.279 78.6127H122.835V176.387H126.279V78.6127Z" stroke="url(#paint31_linear_30_43)" stroke-miterlimit="10"/>
<path d="M154.129 78.6127H150.224V176.387H154.129V78.6127Z" stroke="url(#paint32_linear_30_43)" stroke-miterlimit="10"/>
<path d="M208.997 117.583C210.599 114.473 211.4 111.018 211.327 107.526C211.327 101.465 209.564 96.7624 206.039 93.4186C202.513 90.0748 196.811 88.3817 188.932 88.3394H185.078C192.965 88.3394 198.672 90.0324 202.198 93.4186C205.723 96.8047 207.482 101.507 207.473 107.526C207.55 111.017 206.754 114.472 205.155 117.583C203.526 120.539 200.974 122.892 197.882 124.287C193.845 126.013 189.471 126.824 185.078 126.662H188.919C193.312 126.823 197.686 126.012 201.724 124.287C204.814 122.89 207.366 120.538 208.997 117.583Z" stroke="url(#paint33_linear_30_43)" stroke-miterlimit="10"/>
<path d="M212.915 117.583C214.513 114.472 215.31 111.017 215.233 107.526C215.233 101.465 213.474 96.7624 209.957 93.4186C206.44 90.0748 200.733 88.3817 192.837 88.3394H188.919C196.807 88.3394 202.509 90.0324 206.026 93.4186C209.543 96.8047 211.306 101.507 211.314 107.526C211.387 111.018 210.586 114.473 208.984 117.583C207.356 120.536 204.809 122.887 201.724 124.287C197.686 126.012 193.312 126.823 188.919 126.662H192.824C197.218 126.824 201.592 126.013 205.629 124.287C208.726 122.894 211.283 120.541 212.915 117.583Z" stroke="url(#paint34_linear_30_43)" stroke-miterlimit="10"/>
<path d="M158.034 78.6127H154.129V176.387H158.034V78.6127Z" stroke="url(#paint35_linear_30_43)" stroke-miterlimit="10"/>
<path d="M210.687 127.779C213.358 125.162 215.405 121.987 216.679 118.484C217.949 114.969 218.59 111.26 218.575 107.526C218.638 102.461 217.405 97.4627 214.989 92.9994C212.467 88.4954 208.64 84.8459 204.003 82.5236C199.069 79.9078 192.76 78.6041 185.078 78.6126H158.111V176.387H161.556V136.439H185.078C190.245 136.555 195.394 135.773 200.29 134.128C204.179 132.786 207.727 130.619 210.687 127.779ZM188.919 126.662H161.479V88.3901H192.824C200.712 88.3901 206.419 90.0831 209.944 93.4693C213.47 96.8554 215.228 101.558 215.22 107.577C215.297 111.067 214.501 114.523 212.902 117.634C211.276 120.588 208.729 122.94 205.642 124.338C201.605 126.063 197.23 126.875 192.837 126.713L188.919 126.662Z" stroke="url(#paint36_linear_30_43)" stroke-miterlimit="10"/>
</g>
<path d="M259 0V261.5" stroke="white"/>
<defs>
<linearGradient id="paint0_linear_30_43" x1="188.365" y1="88.3394" x2="188.365" y2="126.682" gradientUnits="userSpaceOnUse">
<stop stop-color="#C4AE85"/>
<stop offset="1" stop-color="#D6C8B0"/>
</linearGradient>
<linearGradient id="paint1_linear_30_43" x1="88.9536" y1="105.545" x2="88.9536" y2="108.009" gradientUnits="userSpaceOnUse">
<stop stop-color="#C4AE85"/>
<stop offset="1" stop-color="#D6C8B0"/>
</linearGradient>
<linearGradient id="paint2_linear_30_43" x1="53.7985" y1="77.673" x2="53.7985" y2="77.7746" gradientUnits="userSpaceOnUse">
<stop stop-color="#C4AE85"/>
<stop offset="1" stop-color="#D6C8B0"/>
</linearGradient>
<linearGradient id="paint3_linear_30_43" x1="53.6193" y1="177.213" x2="53.6193" y2="177.314" gradientUnits="userSpaceOnUse">
<stop stop-color="#C4AE85"/>
<stop offset="1" stop-color="#D6C8B0"/>
</linearGradient>
<linearGradient id="paint4_linear_30_43" x1="79.6255" y1="124.122" x2="79.6255" y2="177.291" gradientUnits="userSpaceOnUse">
<stop stop-color="#C4AE85"/>
<stop offset="1" stop-color="#D6C8B0"/>
</linearGradient>
<linearGradient id="paint5_linear_30_43" x1="34.8784" y1="87.6028" x2="34.8784" y2="167.296" gradientUnits="userSpaceOnUse">
<stop stop-color="#C4AE85"/>
<stop offset="1" stop-color="#D6C8B0"/>
</linearGradient>
<linearGradient id="paint6_linear_30_43" x1="78.5818" y1="77.6207" x2="78.5818" y2="107.996" gradientUnits="userSpaceOnUse">
<stop offset="0.818032" stop-color="#C4AE85"/>
<stop offset="1" stop-color="#D6C8B0"/>
</linearGradient>
<linearGradient id="paint7_linear_30_43" x1="31.9781" y1="87.6342" x2="31.9781" y2="167.299" gradientUnits="userSpaceOnUse">
<stop stop-color="#C4AE85"/>
<stop offset="1" stop-color="#D6C8B0"/>
</linearGradient>
<linearGradient id="paint8_linear_30_43" x1="76.7188" y1="124.122" x2="76.7188" y2="177.264" gradientUnits="userSpaceOnUse">
<stop stop-color="#C4AE85"/>
<stop offset="1" stop-color="#D6C8B0"/>
</linearGradient>
<linearGradient id="paint9_linear_30_43" x1="75.6368" y1="77.673" x2="75.6368" y2="106.764" gradientUnits="userSpaceOnUse">
<stop stop-color="#C4AE85"/>
<stop offset="1" stop-color="#D6C8B0"/>
</linearGradient>
<linearGradient id="paint10_linear_30_43" x1="132.137" y1="78.6127" x2="132.137" y2="176.387" gradientUnits="userSpaceOnUse">
<stop stop-color="#C4AE85"/>
<stop offset="1" stop-color="#D6C8B0"/>
</linearGradient>
<linearGradient id="paint11_linear_30_43" x1="128.232" y1="78.6127" x2="128.232" y2="176.387" gradientUnits="userSpaceOnUse">
<stop stop-color="#C4AE85"/>
<stop offset="1" stop-color="#D6C8B0"/>
</linearGradient>
<linearGradient id="paint12_linear_30_43" x1="167.35" y1="136.439" x2="167.35" y2="176.387" gradientUnits="userSpaceOnUse">
<stop stop-color="#C4AE85"/>
<stop offset="1" stop-color="#D6C8B0"/>
</linearGradient>
<linearGradient id="paint13_linear_30_43" x1="167.35" y1="88.3901" x2="167.35" y2="126.662" gradientUnits="userSpaceOnUse">
<stop stop-color="#C4AE85"/>
<stop offset="1" stop-color="#D6C8B0"/>
</linearGradient>
<linearGradient id="paint14_linear_30_43" x1="207.634" y1="78.6125" x2="207.634" y2="136.451" gradientUnits="userSpaceOnUse">
<stop stop-color="#C4AE85"/>
<stop offset="1" stop-color="#D6C8B0"/>
</linearGradient>
<linearGradient id="paint15_linear_30_43" x1="163.444" y1="88.3901" x2="163.444" y2="126.662" gradientUnits="userSpaceOnUse">
<stop stop-color="#C4AE85"/>
<stop offset="1" stop-color="#D6C8B0"/>
</linearGradient>
<linearGradient id="paint16_linear_30_43" x1="203.748" y1="78.6125" x2="203.748" y2="136.451" gradientUnits="userSpaceOnUse">
<stop stop-color="#C4AE85"/>
<stop offset="1" stop-color="#D6C8B0"/>
</linearGradient>
<linearGradient id="paint17_linear_30_43" x1="163.444" y1="136.439" x2="163.444" y2="176.387" gradientUnits="userSpaceOnUse">
<stop stop-color="#C4AE85"/>
<stop offset="1" stop-color="#D6C8B0"/>
</linearGradient>
<linearGradient id="paint18_linear_30_43" x1="26.2459" y1="77.6707" x2="26.2459" y2="177.392" gradientUnits="userSpaceOnUse">
<stop stop-color="#C4AE85"/>
<stop offset="1" stop-color="#D6C8B0"/>
</linearGradient>
<linearGradient id="paint19_linear_30_43" x1="70.3613" y1="87.6028" x2="70.3613" y2="107.945" gradientUnits="userSpaceOnUse">
<stop stop-color="#C4AE85"/>
<stop offset="1" stop-color="#D6C8B0"/>
</linearGradient>
<linearGradient id="paint20_linear_30_43" x1="52.5949" y1="124.148" x2="52.5949" y2="133.227" gradientUnits="userSpaceOnUse">
<stop stop-color="#C4AE85"/>
<stop offset="1" stop-color="#D6C8B0"/>
</linearGradient>
<linearGradient id="paint21_linear_30_43" x1="71.0848" y1="133.227" x2="71.0848" y2="167.245" gradientUnits="userSpaceOnUse">
<stop stop-color="#C4AE85"/>
<stop offset="1" stop-color="#D6C8B0"/>
</linearGradient>
<linearGradient id="paint22_linear_30_43" x1="72.9542" y1="87.549" x2="72.9542" y2="106.739" gradientUnits="userSpaceOnUse">
<stop stop-color="#C4AE85"/>
<stop offset="1" stop-color="#D6C8B0"/>
</linearGradient>
<linearGradient id="paint23_linear_30_43" x1="56.5003" y1="124.148" x2="56.5003" y2="133.227" gradientUnits="userSpaceOnUse">
<stop stop-color="#C4AE85"/>
<stop offset="1" stop-color="#D6C8B0"/>
</linearGradient>
<linearGradient id="paint24_linear_30_43" x1="29.1348" y1="77.673" x2="29.1348" y2="177.34" gradientUnits="userSpaceOnUse">
<stop stop-color="#C4AE85"/>
<stop offset="1" stop-color="#D6C8B0"/>
</linearGradient>
<linearGradient id="paint25_linear_30_43" x1="74.0235" y1="133.227" x2="74.0235" y2="167.26" gradientUnits="userSpaceOnUse">
<stop stop-color="#C4AE85"/>
<stop offset="1" stop-color="#D6C8B0"/>
</linearGradient>
<linearGradient id="paint26_linear_30_43" x1="53.8754" y1="167.169" x2="53.8754" y2="167.296" gradientUnits="userSpaceOnUse">
<stop stop-color="#C4AE85"/>
<stop offset="1" stop-color="#D6C8B0"/>
</linearGradient>
<linearGradient id="paint27_linear_30_43" x1="53.7089" y1="87.552" x2="53.7089" y2="87.6893" gradientUnits="userSpaceOnUse">
<stop stop-color="#C4AE85"/>
<stop offset="1" stop-color="#D6C8B0"/>
</linearGradient>
<linearGradient id="paint28_linear_30_43" x1="52.1446" y1="77.7745" x2="52.1446" y2="177.238" gradientUnits="userSpaceOnUse">
<stop stop-color="#C4AE85"/>
<stop offset="1" stop-color="#D6C8B0"/>
</linearGradient>
<linearGradient id="paint29_linear_30_43" x1="116.964" y1="78.6127" x2="116.964" y2="176.387" gradientUnits="userSpaceOnUse">
<stop stop-color="#C4AE85"/>
<stop offset="1" stop-color="#D6C8B0"/>
</linearGradient>
<linearGradient id="paint30_linear_30_43" x1="120.869" y1="78.6127" x2="120.869" y2="176.387" gradientUnits="userSpaceOnUse">
<stop stop-color="#C4AE85"/>
<stop offset="1" stop-color="#D6C8B0"/>
</linearGradient>
<linearGradient id="paint31_linear_30_43" x1="124.557" y1="78.6127" x2="124.557" y2="176.387" gradientUnits="userSpaceOnUse">
<stop stop-color="#C4AE85"/>
<stop offset="1" stop-color="#D6C8B0"/>
</linearGradient>
<linearGradient id="paint32_linear_30_43" x1="152.176" y1="78.6127" x2="152.176" y2="176.387" gradientUnits="userSpaceOnUse">
<stop stop-color="#C4AE85"/>
<stop offset="1" stop-color="#D6C8B0"/>
</linearGradient>
<linearGradient id="paint33_linear_30_43" x1="198.205" y1="88.3394" x2="198.205" y2="126.682" gradientUnits="userSpaceOnUse">
<stop stop-color="#C4AE85"/>
<stop offset="1" stop-color="#D6C8B0"/>
</linearGradient>
<linearGradient id="paint34_linear_30_43" x1="202.078" y1="88.3394" x2="202.078" y2="126.682" gradientUnits="userSpaceOnUse">
<stop stop-color="#C4AE85"/>
<stop offset="1" stop-color="#D6C8B0"/>
</linearGradient>
<linearGradient id="paint35_linear_30_43" x1="156.082" y1="78.6127" x2="156.082" y2="176.387" gradientUnits="userSpaceOnUse">
<stop stop-color="#C4AE85"/>
<stop offset="1" stop-color="#D6C8B0"/>
</linearGradient>
<linearGradient id="paint36_linear_30_43" x1="188.344" y1="78.6125" x2="188.344" y2="176.387" gradientUnits="userSpaceOnUse">
<stop stop-color="#C4AE85"/>
<stop offset="1" stop-color="#D6C8B0"/>
</linearGradient>
<clipPath id="clip0_30_43">
<rect width="227" height="101" fill="white" transform="translate(0 77)"/>
</clipPath>
</defs>
</svg>
